<svg width="10" height="10" viewBox="0 0 10 10" fill="none" xmlns="http://www.w3.org/2000/svg">
<path d="M5.20827 6.14583H4.1666C3.99577 6.14583 3.8541 6.00417 3.8541 5.83333C3.8541 5.6625 3.99577 5.52083 4.1666 5.52083H5.20827C6.29994 5.52083 7.18744 4.63333 7.18744 3.54167C7.18744 2.45 6.29994 1.5625 5.20827 1.5625H3.12494C2.03327 1.5625 1.14577 2.45 1.14577 3.54167C1.14577 4 1.30827 4.44583 1.59993 4.8C1.70827 4.93333 1.6916 5.12916 1.55827 5.24166C1.42493 5.34999 1.2291 5.33334 1.1166 5.2C0.729103 4.73334 0.516602 4.14583 0.516602 3.54167C0.516602 2.10417 1.68327 0.9375 3.12077 0.9375H5.2041C6.6416 0.9375 7.80827 2.10417 7.80827 3.54167C7.80827 4.97917 6.64577 6.14583 5.20827 6.14583Z" fill="#A3ABB6"/>
<path d="M6.875 9.06258H4.79167C3.35417 9.06258 2.1875 7.89591 2.1875 6.45841C2.1875 5.02091 3.35417 3.85425 4.79167 3.85425H5.83333C6.00417 3.85425 6.14583 3.99591 6.14583 4.16675C6.14583 4.33758 6.00417 4.47925 5.83333 4.47925H4.79167C3.7 4.47925 2.8125 5.36675 2.8125 6.45841C2.8125 7.55008 3.7 8.43758 4.79167 8.43758H6.875C7.96667 8.43758 8.85417 7.55008 8.85417 6.45841C8.85417 6.00008 8.69167 5.55425 8.4 5.20009C8.29167 5.06675 8.30833 4.87092 8.44167 4.75842C8.575 4.64592 8.77083 4.66674 8.88333 4.80008C9.27083 5.26674 9.48333 5.85425 9.48333 6.45841C9.47917 7.89591 8.3125 9.06258 6.875 9.06258Z" fill="#A3ABB6"/>
</svg>
