<svg width="35" height="35" viewBox="0 0 35 35" fill="none" xmlns="http://www.w3.org/2000/svg">
<path d="M28.4376 10.9375L26.2646 13.1104L21.8896 8.73541L24.0626 6.56249C24.6751 5.94999 25.4626 5.65833 26.2501 5.65833C27.0376 5.65833 27.8251 5.94999 28.4376 6.56249C29.648 7.77291 29.648 9.72708 28.4376 10.9375Z" fill="#A3ABB6"/>
<path d="M25.2437 14.1458L9.4791 29.8958C8.26868 31.1062 6.31452 31.1062 5.1041 29.8958C3.89368 28.6854 3.89368 26.7312 5.1041 25.5208L20.8687 9.77081L25.2437 14.1458Z" fill="#A3ABB6"/>
<path d="M14.5108 5.10419L15.1087 3.07711C15.1671 2.88752 15.1087 2.68336 14.9775 2.53752C14.8462 2.39169 14.6129 2.33336 14.4233 2.39169L12.3962 2.98961L10.3692 2.39169C10.1796 2.33336 9.97541 2.39169 9.82958 2.52294C9.68374 2.66877 9.63999 2.87294 9.69833 3.06252L10.2817 5.10419L9.68374 7.13127C9.62541 7.32086 9.68374 7.52502 9.81499 7.67086C9.96083 7.81669 10.165 7.86044 10.3546 7.80211L12.3962 7.21877L14.4233 7.81669C14.4817 7.83127 14.5254 7.84586 14.5837 7.84586C14.7296 7.84586 14.8608 7.78752 14.9775 7.68544C15.1233 7.53961 15.1671 7.33544 15.1087 7.14586L14.5108 5.10419Z" fill="#A3ABB6"/>
<path d="M8.67684 13.8542L9.27476 11.8271C9.33309 11.6375 9.27476 11.4334 9.14351 11.2875C8.99768 11.1417 8.79351 11.0979 8.60393 11.1563L6.56226 11.7396L4.53518 11.1417C4.34559 11.0834 4.14143 11.1417 3.99559 11.2729C3.84976 11.4188 3.80601 11.6229 3.86434 11.8125L4.44768 13.8542L3.84976 15.8813C3.79143 16.0709 3.84976 16.275 3.98101 16.4209C4.12684 16.5667 4.33101 16.6104 4.52059 16.5521L6.54768 15.9542L8.57476 16.5521C8.61851 16.5667 8.67684 16.5667 8.73518 16.5667C8.88101 16.5667 9.01226 16.5084 9.12893 16.4063C9.27476 16.2604 9.31851 16.0563 9.26018 15.8667L8.67684 13.8542Z" fill="#A3ABB6"/>
<path d="M30.5524 21.1458L31.1503 19.1187C31.2087 18.9292 31.1503 18.725 31.0191 18.5792C30.8732 18.4333 30.6691 18.3896 30.4795 18.4479L28.4524 19.0458L26.4253 18.4479C26.2357 18.3896 26.0316 18.4479 25.8857 18.5792C25.7399 18.725 25.6962 18.9292 25.7545 19.1187L26.3524 21.1458L25.7545 23.1729C25.6962 23.3625 25.7545 23.5667 25.8857 23.7125C26.0316 23.8583 26.2357 23.9021 26.4253 23.8437L28.4524 23.2458L30.4795 23.8437C30.5232 23.8583 30.5816 23.8583 30.6399 23.8583C30.7857 23.8583 30.917 23.8 31.0337 23.6979C31.1795 23.5521 31.2232 23.3479 31.1649 23.1583L30.5524 21.1458Z" fill="#A3ABB6"/>
</svg>
