<svg width="18" height="18" viewBox="0 0 18 18" fill="none" xmlns="http://www.w3.org/2000/svg">
<path d="M10.9125 16.815C10.665 16.815 10.4325 16.65 10.365 16.395C10.29 16.095 10.4625 15.7875 10.7625 15.705C13.8075 14.9025 15.93 12.1425 15.93 8.9925C15.93 5.1675 12.8175 2.055 8.9925 2.055C5.745 2.055 3.615 3.9525 2.6175 5.1H4.8225C5.13 5.1 5.385 5.355 5.385 5.6625C5.385 5.97 5.145 6.2325 4.83 6.2325H1.5075C1.455 6.2325 1.4025 6.225 1.35 6.21C1.2825 6.1875 1.2225 6.1575 1.17 6.12C1.1025 6.075 1.05 6.015 1.0125 5.9475C0.975 5.8725 0.945 5.7975 0.9375 5.715C0.9375 5.6925 0.9375 5.6775 0.9375 5.655V2.25C0.9375 1.9425 1.1925 1.6875 1.5 1.6875C1.8075 1.6875 2.0625 1.9425 2.0625 2.25V4.0425C3.285 2.73 5.5875 0.9375 9 0.9375C13.4475 0.9375 17.0625 4.5525 17.0625 9C17.0625 12.66 14.595 15.87 11.055 16.8C11.01 16.8075 10.9575 16.815 10.9125 16.815Z" fill="#A3ABB6"/>
<path d="M8.4675 17.0475C8.4525 17.0475 8.43 17.0475 8.415 17.04C7.6125 16.9875 6.825 16.8075 6.075 16.515C5.8575 16.4325 5.715 16.215 5.715 15.9825C5.715 15.915 5.73 15.8475 5.7525 15.7875C5.865 15.5025 6.195 15.3525 6.48 15.465C7.125 15.72 7.8075 15.87 8.4975 15.9225H8.505C8.805 15.9375 9.03 16.1925 9.03 16.4925C9.03 16.5 9.03 16.515 9.03 16.5225C9.0075 16.815 8.76 17.0475 8.4675 17.0475ZM4.335 15.435C4.2075 15.435 4.0875 15.3975 3.9825 15.315C3.3525 14.8125 2.805 14.22 2.3475 13.5525C2.28 13.455 2.2425 13.35 2.2425 13.2375C2.2425 13.05 2.3325 12.8775 2.49 12.7725C2.7375 12.6 3.105 12.6675 3.27 12.915C3.6675 13.4925 4.14 14.0025 4.6875 14.43C4.815 14.535 4.8975 14.6925 4.8975 14.865C4.8975 14.9925 4.86 15.12 4.7775 15.225C4.6725 15.36 4.5075 15.435 4.335 15.435ZM1.83 11.775C1.5825 11.775 1.365 11.6175 1.2975 11.385C1.0575 10.6125 0.9375 9.81 0.9375 9C0.9375 8.6925 1.1925 8.4375 1.5 8.4375C1.8075 8.4375 2.0625 8.6925 2.0625 9C2.0625 9.6975 2.1675 10.3875 2.37 11.0475C2.385 11.1 2.3925 11.16 2.3925 11.22C2.3925 11.4675 2.235 11.6775 2.0025 11.7525C1.9425 11.7675 1.89 11.775 1.83 11.775Z" fill="#A3ABB6"/>
<path d="M9 12C10.6569 12 12 10.6569 12 9C12 7.34315 10.6569 6 9 6C7.34315 6 6 7.34315 6 9C6 10.6569 7.34315 12 9 12Z" fill="#A3ABB6"/>
</svg>
