<svg width="35" height="35" viewBox="0 0 35 35" fill="none" xmlns="http://www.w3.org/2000/svg">
<path d="M23.6107 3.39795H11.3899C6.08158 3.39795 2.91699 6.57712 2.91699 11.8854V24.0917C2.91699 29.4 6.08158 32.5646 11.3899 32.5646H23.5962C28.9045 32.5646 32.0691 29.4 32.0691 24.0917V11.8854C32.0837 6.57712 28.9191 3.39795 23.6107 3.39795ZM16.8732 24.9667C16.8732 25.4042 16.6545 25.7979 16.2753 26.0313C16.0712 26.1625 15.8524 26.2209 15.6191 26.2209C15.4295 26.2209 15.2399 26.1771 15.0503 26.0896L9.94616 23.5375C9.21699 23.1584 8.75033 22.4146 8.75033 21.5834V16.7563C8.75033 16.3188 8.96907 15.925 9.34824 15.6917C9.72741 15.4584 10.1795 15.4438 10.5732 15.6334L15.6774 18.1854C16.4212 18.5646 16.8878 19.3084 16.8878 20.1396V24.9667H16.8732ZM16.567 17.1646L11.0837 14.2042C10.6899 13.9854 10.442 13.5625 10.442 13.0813C10.442 12.6146 10.6899 12.1771 11.0837 11.9584L16.567 8.99795C17.1503 8.6917 17.8357 8.6917 18.4191 8.99795L23.9024 11.9584C24.2962 12.1771 24.5441 12.6 24.5441 13.0813C24.5441 13.5625 24.2962 13.9854 23.9024 14.2042L18.4191 17.1646C18.1274 17.325 17.8066 17.3979 17.4857 17.3979C17.1649 17.3979 16.8587 17.325 16.567 17.1646ZM26.2503 21.5834C26.2503 22.4146 25.7837 23.1729 25.0399 23.5375L19.9357 26.0896C19.7607 26.1771 19.5712 26.2209 19.367 26.2209C19.1337 26.2209 18.9149 26.1625 18.7107 26.0313C18.3316 25.7979 18.1128 25.4042 18.1128 24.9667V20.1396C18.1128 19.3084 18.5795 18.55 19.3232 18.1854L24.4274 15.6334C24.8212 15.4438 25.2732 15.4584 25.6524 15.6917C26.0316 15.925 26.2503 16.3188 26.2503 16.7563V21.5834Z" fill="#A3ABB6"/>
</svg>
