<svg width="18" height="18" viewBox="0 0 18 18" fill="none" xmlns="http://www.w3.org/2000/svg">
<path d="M3.99734 14.565C3.91484 14.565 3.82484 14.5425 3.74984 14.505L2.08484 13.6725C1.89734 13.575 1.77734 13.38 1.77734 13.17V11.085C1.77734 10.7775 2.03234 10.5225 2.33984 10.5225C2.64734 10.5225 2.90234 10.7775 2.90234 11.085V12.8175L4.25234 13.5C4.52984 13.635 4.64234 13.9725 4.49984 14.25C4.40234 14.445 4.20734 14.565 3.99734 14.565Z" fill="#A3ABB6"/>
<path d="M8.9996 17.0625C8.9546 17.0625 8.9096 17.055 8.8721 17.0475C8.8271 17.04 8.7821 17.0175 8.7371 16.995L7.0796 16.17C6.8021 16.0275 6.6896 15.69 6.8246 15.4125C6.9671 15.135 7.3046 15.0225 7.5821 15.1575L8.4371 15.585V14.415C8.4371 14.1075 8.6921 13.8525 8.9996 13.8525C9.3071 13.8525 9.5621 14.1075 9.5621 14.415V15.585L10.4171 15.1575C10.6946 15.0225 11.0321 15.135 11.1746 15.4125C11.3171 15.69 11.2046 16.0275 10.9196 16.17L9.2621 16.995C9.2171 17.0175 9.1721 17.0325 9.1271 17.0475C9.0821 17.055 9.0446 17.0625 8.9996 17.0625Z" fill="#A3ABB6"/>
<path d="M14.0026 14.565C13.8001 14.565 13.5976 14.4525 13.5001 14.2575C13.3576 13.98 13.4701 13.6425 13.7551 13.5L15.1126 12.825V11.0925C15.1126 10.785 15.3676 10.53 15.6751 10.53C15.9826 10.53 16.2376 10.785 16.2376 11.0925V13.1775C16.2376 13.3875 16.1176 13.5825 15.9301 13.68L14.2501 14.505C14.1676 14.5425 14.0851 14.565 14.0026 14.565Z" fill="#A3ABB6"/>
<path d="M8.9996 10.815C8.6921 10.815 8.4371 10.56 8.4371 10.2525V8.52003L7.0796 7.84503C6.8021 7.70253 6.6896 7.36503 6.8246 7.08753C6.9671 6.81003 7.3046 6.69753 7.5821 6.83253L8.9996 7.53753L10.4171 6.83253C10.6946 6.69753 11.0321 6.80253 11.1746 7.08753C11.3171 7.36503 11.2046 7.70253 10.9196 7.84503L9.5621 8.52003V10.2525C9.5621 10.56 9.3071 10.815 8.9996 10.815Z" fill="#A3ABB6"/>
<path d="M2.33203 7.47752C2.02453 7.47752 1.76953 7.22252 1.76953 6.91502V4.84501V4.83751C1.76953 4.79251 1.77703 4.74752 1.78453 4.71002C1.79953 4.64252 1.82203 4.59002 1.85203 4.53752C1.87453 4.50002 1.90453 4.47001 1.93453 4.44001C1.96453 4.41001 2.00203 4.38001 2.03953 4.35751C2.05453 4.35001 2.07703 4.33501 2.09203 4.32751L3.74953 3.49501C4.02703 3.36001 4.36453 3.47251 4.49953 3.75001C4.64203 4.02751 4.52953 4.36501 4.25203 4.50001L3.59203 4.83001L4.25203 5.16001C4.52953 5.30251 4.64203 5.64001 4.49953 5.91751C4.36453 6.19501 4.02703 6.30751 3.74953 6.17251L2.89453 5.74501V6.91502C2.89453 7.23002 2.64703 7.47752 2.33203 7.47752Z" fill="#A3ABB6"/>
<path d="M10.6649 2.89492C10.5824 2.89492 10.4924 2.87242 10.4174 2.83492L8.99986 2.12992L7.58236 2.83492C7.30486 2.97742 6.96736 2.86492 6.83236 2.58742C6.68986 2.30992 6.80236 1.97242 7.07986 1.82992L8.74486 0.997422C8.90236 0.914922 9.08986 0.914922 9.24736 0.997422L10.9124 1.82992C11.1899 1.97242 11.3024 2.30992 11.1674 2.58742C11.0699 2.78242 10.8749 2.89492 10.6649 2.89492Z" fill="#A3ABB6"/>
<path d="M15.6678 7.47752C15.3603 7.47752 15.1053 7.22252 15.1053 6.91502V5.74501L14.2503 6.17251C13.9728 6.30751 13.6353 6.19501 13.5003 5.91751C13.3578 5.64001 13.4703 5.30251 13.7553 5.16001L14.4153 4.83001L13.7478 4.50001C13.4703 4.36501 13.3578 4.02751 13.5003 3.75001C13.6428 3.47251 13.9728 3.36001 14.2503 3.49501L15.9078 4.32002C15.9228 4.32752 15.9453 4.33502 15.9603 4.35002C16.0053 4.37252 16.0428 4.41001 16.0803 4.44751C16.1028 4.47751 16.1253 4.50752 16.1478 4.53752C16.1778 4.59002 16.2003 4.64251 16.2153 4.70251C16.2228 4.74751 16.2303 4.79251 16.2303 4.83001V4.83751V6.90752C16.2303 7.23002 15.9753 7.47752 15.6678 7.47752Z" fill="#A3ABB6"/>
</svg>
