<svg width="35" height="35" viewBox="0 0 35 35" fill="none" xmlns="http://www.w3.org/2000/svg">
<path d="M3.76217 27.7229L3.73301 27.7521C3.33926 26.8916 3.09134 25.9146 2.98926 24.8354C3.09134 25.9 3.36842 26.8625 3.76217 27.7229Z" fill="#A3ABB6"/>
<path d="M13.1251 15.1375C15.042 15.1375 16.596 13.5836 16.596 11.6667C16.596 9.74981 15.042 8.19586 13.1251 8.19586C11.2082 8.19586 9.6543 9.74981 9.6543 11.6667C9.6543 13.5836 11.2082 15.1375 13.1251 15.1375Z" fill="#A3ABB6"/>
<path d="M23.6107 2.91669H11.3899C6.08158 2.91669 2.91699 6.08127 2.91699 11.3896V23.6104C2.91699 25.2 3.19408 26.5854 3.73366 27.7521C4.98783 30.5229 7.67116 32.0834 11.3899 32.0834H23.6107C28.9191 32.0834 32.0837 28.9188 32.0837 23.6104V20.2709V11.3896C32.0837 6.08127 28.9191 2.91669 23.6107 2.91669ZM29.7066 18.2292C28.5691 17.2521 26.7316 17.2521 25.5941 18.2292L19.5274 23.4354C18.3899 24.4125 16.5524 24.4125 15.4149 23.4354L14.9191 23.0271C13.8837 22.1229 12.2357 22.0354 11.0691 22.8229L5.61491 26.4834C5.29408 25.6667 5.10449 24.7188 5.10449 23.6104V11.3896C5.10449 7.2771 7.27741 5.10419 11.3899 5.10419H23.6107C27.7232 5.10419 29.8962 7.2771 29.8962 11.3896V18.3896L29.7066 18.2292Z" fill="#A3ABB6"/>
</svg>
