<svg width="35" height="35" viewBox="0 0 35 35" fill="none" xmlns="http://www.w3.org/2000/svg">
<path d="M25.6087 2.91663H9.34824C5.80449 2.91663 2.91699 5.80413 2.91699 9.34788V18.827V19.1187C2.91699 22.677 5.80449 25.55 9.34824 25.55H14.9482C15.7503 25.55 16.4066 26.2062 16.4066 27.0083V28.4229C16.4066 29.225 15.7503 29.8812 14.9482 29.8812H11.4191C10.8212 29.8812 10.3253 30.377 10.3253 30.975C10.3253 31.5729 10.8066 32.0833 11.4191 32.0833H23.5962C24.1941 32.0833 24.6899 31.5875 24.6899 30.9895C24.6899 30.3916 24.1941 29.8958 23.5962 29.8958H20.067C19.2649 29.8958 18.6087 29.2395 18.6087 28.4375V27.0229C18.6087 26.2208 19.2649 25.5645 20.067 25.5645H25.6232C29.1816 25.5645 32.0545 22.677 32.0545 19.1333V18.8416V9.36246C32.0399 5.80413 29.1524 2.91663 25.6087 2.91663Z" fill="#A3ABB6"/>
</svg>
